<svg viewBox="0 0 1200 1200" xmlns:xlink="http://www.w3.org/1999/xlink" xmlns="http://www.w3.org/2000/svg" id="图层_1"><defs><style>.cls-1,.cls-11,.cls-12,.cls-14,.cls-15{fill:none;}.cls-2{fill:#a68c8c;}.cls-3{clip-path:url(#clip-path);}.cls-4{fill:#8688b4;stroke:#360810;}.cls-11,.cls-12,.cls-14,.cls-17,.cls-18,.cls-4,.cls-7{stroke-linecap:round;}.cls-11,.cls-14,.cls-17,.cls-18,.cls-4,.cls-7{stroke-linejoin:round;}.cls-11,.cls-4{stroke-width:16px;}.cls-5{clip-path:url(#clip-path-2);}.cls-6{fill:#eab9b1;}.cls-16,.cls-17,.cls-18,.cls-6,.cls-7,.cls-8{stroke:#370911;stroke-width:14px;}.cls-12,.cls-15,.cls-16,.cls-6,.cls-8{stroke-miterlimit:10;}.cls-7{fill:#fde9d1;}.cls-8{fill:#f9d9d0;}.cls-9{fill:#271d1f;}.cls-10{fill:#de717e;}.cls-11,.cls-14,.cls-15{stroke:#231815;}.cls-12{stroke:#fff;stroke-width:20px;}.cls-13,.cls-18{fill:#fff;}.cls-14,.cls-15{stroke-width:15px;}.cls-16{fill:#f0dfed;}.cls-17{fill:#e13e3b;}</style><clipPath id="clip-path"><circle r="462.13" cy="-633.29" cx="600" class="cls-1"></circle></clipPath><clipPath id="clip-path-2"><circle r="462.13" cy="600" cx="600" class="cls-1"></circle></clipPath></defs><title>卡通头像</title><circle r="462.13" cy="600" cx="600" class="cls-2"></circle><g class="cls-3"><ellipse ry="384.61" rx="542.37" cy="-146.69" cx="600" class="cls-4"></ellipse></g><g class="cls-5"><polygon points="485.14 790.82 481.25 1132.2 601.29 1136.91 718.75 1148.46 710.4 794.81 505.35 788.04 485.14 790.82" class="cls-6"></polygon><path d="M899.47,594c0,39.85-26.09,78.15-58.28,78.15s-58.27-32.3-58.27-72.15,33.09-72.15,65.27-72.15S899.47,554.15,899.47,594Z" class="cls-7"></path><path d="M418.08,600c0,39.85-25.77,72.15-57.56,72.15S302,633.85,302,594s19.85-66.15,51.64-66.15S418.08,560.15,418.08,600Z" class="cls-7"></path><ellipse ry="281.42" rx="242.17" cy="559.3" cx="601.11" class="cls-8"></ellipse><ellipse ry="26.85" rx="26.84" cy="533.92" cx="518.24" class="cls-9"></ellipse><ellipse ry="26.85" rx="26.84" cy="533.92" cx="681.76" class="cls-9"></ellipse><circle r="49.53" cy="643.05" cx="450.15" class="cls-10"></circle><circle r="49.53" cy="643.05" cx="749.85" class="cls-10"></circle><path d="M594.85,533.39S621,559.71,621,570.55,594.85,600,594.85,600" class="cls-11"></path><path d="M647.14,449.3s6.33-13.42,42.49-7.28c27.33,4.64,33.71,18.38,33.71,18.38" class="cls-12"></path><path d="M552.86,449.3s-6.33-13.42-42.49-7.28c-27.33,4.64-33.71,18.38-33.71,18.38" class="cls-12"></path><path d="M364.18,339.24S339.43,264.15,388.11,246s60.25-8.25,60.25-8.25,9.9-31.36,61.89-35.49,64.37,12.38,64.37,12.38,20.63-47.86,71.8-40.44,57.76,56.12,57.76,56.12,33-25.58,83.35,4.95,32.19,69.32,32.19,69.32,53.64-17.33,71.79,30.54.83,76.74.83,76.74,42.87,5.5,54.69,49.52c10.2,38-11.73,74.92-32.54,95.31,0,0-23.24-32-44.64-23.09-11.82,4.91,2,41.22-5.21,40.9-50.25-2.29-43.27-44.63-43.27-44.63s-12.38-7.42-47.87-26.4-23.93-57.77-23.93-57.77-19.8,18.15-56.94,8.25-56.12-43.74-56.12-43.74-14,51.17-62.71,48.69-72.63-31.36-72.63-31.36,3.3,35.49-24.75,50.34-57.77,3.3-57.77,3.3,7.77,28.87-15.68,56.12c-14.42,16.76-39.83,14.08-39.83,14.08s-6.28-32.37-36-20.81-36.1,52.88-36.1,52.88-28.37-9.84-26.72-43.67,14.85-39.61,14.85-39.61-40.43-17.33-24.75-56.12,35.48-44.56,35.48-44.56-11.55-41.27,15.68-55.3S364.18,339.24,364.18,339.24Z" class="cls-13"></path><line y2="672.07" x2="658.88" y1="696.07" x1="692.17" class="cls-14"></line><path d="M543.53,687.55S564.43,727.81,607,727s65-39.48,65-39.48" class="cls-15"></path><line y2="672.07" x2="556.96" y1="696.07" x1="523.67" class="cls-14"></line><path d="M507.48,1225.45s41,44.9,89.81,39.48,95.23-75.87,95.23-83.61-72-292.13-72-292.13H584.9Z" class="cls-16"></path><path d="M622.16,908.09l37.16,376.59,377.81-196.21S904.74,923.57,794,876.63C743,855,708.1,839.57,694.94,847.7s-49.71,40.54-49.71,40.54Z" class="cls-17"></path><path d="M687.93,833.71c-10.13,4.13-34.95,41.43-44,45.31s-36.24,8.42-36.24,8.42,26.54,77.67,71.2,60.84,42.72-69.26,44-85.44-4.13-52.29-4.13-52.29S698.21,829.53,687.93,833.71Z" class="cls-18"></path><path d="M573.72,908.09l-37.16,376.59-377.8-196.21s132.38-164.9,243.09-211.84c51-21.65,85.94-37.06,99.1-28.93s49.71,40.54,49.71,40.54Z" class="cls-17"></path><path d="M508,833.71c10.93,0,34.95,41.43,44,45.31s36.25,8.42,36.25,8.42-26.54,77.67-71.2,60.84S474.3,879,473,862.84s-2.19-59.65-2.19-59.65S497,833.71,508,833.71Z" class="cls-18"></path></g></svg>