<svg width="669.000000" height="533.000000" viewBox="0 0 669 533" fill="none" xmlns="http://www.w3.org/2000/svg" xmlns:xlink="http://www.w3.org/1999/xlink">
	<desc>
			Created with Pixso.
	</desc>
	<defs>
		<linearGradient x1="119.183609" y1="424.781860" x2="557.467468" y2="424.781860" id="paint_linear_2_3022_0" gradientUnits="userSpaceOnUse">
			<stop stop-color="#009DF8"/>
			<stop offset="1.000000" stop-color="#009DF8"/>
		</linearGradient>
		<linearGradient x1="557.467773" y1="424.782043" x2="116.183624" y2="424.782043" id="paint_linear_2_3022_1" gradientUnits="userSpaceOnUse">
			<stop stop-color="#75CEFF"/>
			<stop offset="1.000000" stop-color="#A0F7FF"/>
		</linearGradient>
		<linearGradient x1="70.804016" y1="434.152344" x2="604.367065" y2="434.152344" id="paint_linear_2_3023_0" gradientUnits="userSpaceOnUse">
			<stop stop-color="#009DF8"/>
			<stop offset="1.000000" stop-color="#009DF8"/>
		</linearGradient>
		<linearGradient x1="604.367371" y1="434.152588" x2="67.151855" y2="434.152588" id="paint_linear_2_3023_1" gradientUnits="userSpaceOnUse">
			<stop stop-color="#75CEFF"/>
			<stop offset="1.000000" stop-color="#A0F7FF"/>
		</linearGradient>
		<linearGradient x1="4.543549" y1="429.699829" x2="668.321289" y2="429.699829" id="paint_linear_2_3024_0" gradientUnits="userSpaceOnUse">
			<stop stop-color="#009DF8"/>
			<stop offset="1.000000" stop-color="#009DF8"/>
		</linearGradient>
		<linearGradient x1="668.321655" y1="429.699951" x2="0.000000" y2="429.699951" id="paint_linear_2_3024_1" gradientUnits="userSpaceOnUse">
			<stop stop-color="#75CEFF"/>
			<stop offset="1.000000" stop-color="#A0F7FF"/>
		</linearGradient>
		<linearGradient x1="163.342957" y1="417.285217" x2="512.699707" y2="417.285217" id="paint_linear_2_3025_0" gradientUnits="userSpaceOnUse">
			<stop stop-color="#009DF8"/>
			<stop offset="1.000000" stop-color="#009DF8"/>
		</linearGradient>
		<linearGradient x1="512.699890" y1="417.285217" x2="160.951630" y2="417.285217" id="paint_linear_2_3025_1" gradientUnits="userSpaceOnUse">
			<stop stop-color="#75CEFF"/>
			<stop offset="1.000000" stop-color="#A0F7FF"/>
		</linearGradient>
		<linearGradient x1="223.280487" y1="411.038330" x2="453.009033" y2="411.038330" id="paint_linear_2_3026_0" gradientUnits="userSpaceOnUse">
			<stop stop-color="#009DF8"/>
			<stop offset="1.000000" stop-color="#009DF8"/>
		</linearGradient>
		<linearGradient x1="453.009155" y1="411.038391" x2="221.708023" y2="411.038391" id="paint_linear_2_3026_1" gradientUnits="userSpaceOnUse">
			<stop stop-color="#75CEFF"/>
			<stop offset="1.000000" stop-color="#A0F7FF"/>
		</linearGradient>
		<linearGradient x1="196.552261" y1="394.818817" x2="471.130066" y2="394.818817" id="paint_linear_2_3027_0" gradientUnits="userSpaceOnUse">
			<stop stop-color="#00D8FB"/>
			<stop offset="0.339962" stop-color="#009EF8"/>
			<stop offset="0.796096" stop-color="#006FEC"/>
			<stop offset="1.000000" stop-color="#005DFF"/>
		</linearGradient>
		<linearGradient x1="196.937347" y1="325.799927" x2="471.129456" y2="325.799927" id="paint_linear_2_3031_0" gradientUnits="userSpaceOnUse">
			<stop stop-color="#009DF8"/>
			<stop offset="1.000000" stop-color="#009DF8"/>
		</linearGradient>
		<linearGradient x1="471.129608" y1="325.800018" x2="195.060547" y2="325.800018" id="paint_linear_2_3031_1" gradientUnits="userSpaceOnUse">
			<stop stop-color="#39B9FF"/>
			<stop offset="1.000000" stop-color="#6AF2FF"/>
		</linearGradient>
		<linearGradient x1="251.936615" y1="325.968414" x2="463.667969" y2="325.968414" id="paint_linear_2_3033_0" gradientUnits="userSpaceOnUse">
			<stop stop-color="#004CE1"/>
			<stop offset="1.000000" stop-color="#0068F4"/>
		</linearGradient>
		<linearGradient x1="463.668060" y1="325.968536" x2="250.487274" y2="325.968536" id="paint_linear_2_3033_1" gradientUnits="userSpaceOnUse">
			<stop stop-color="#39B9FF"/>
			<stop offset="1.000000" stop-color="#6AF2FF"/>
		</linearGradient>
		<linearGradient x1="227.123581" y1="319.376984" x2="439.152313" y2="319.376984" id="paint_linear_2_3034_0" gradientUnits="userSpaceOnUse">
			<stop stop-color="#00D8FB"/>
			<stop offset="0.339962" stop-color="#009EF8"/>
			<stop offset="0.796096" stop-color="#006FEC"/>
			<stop offset="1.000000" stop-color="#005DFF"/>
		</linearGradient>
		<linearGradient x1="227.420990" y1="265.839508" x2="439.152344" y2="265.839508" id="paint_linear_2_3035_0" gradientUnits="userSpaceOnUse">
			<stop stop-color="#009DF8"/>
			<stop offset="1.000000" stop-color="#009DF8"/>
		</linearGradient>
		<linearGradient x1="439.152435" y1="265.839630" x2="225.971649" y2="265.839630" id="paint_linear_2_3035_1" gradientUnits="userSpaceOnUse">
			<stop stop-color="#39B9FF"/>
			<stop offset="1.000000" stop-color="#6AF2FF"/>
		</linearGradient>
		<linearGradient x1="336.095154" y1="308.163422" x2="342.596130" y2="-22.424187" id="paint_linear_2_3037_0" gradientUnits="userSpaceOnUse">
			<stop stop-color="#00FBFF"/>
			<stop offset="1.000000" stop-color="#5AAFC6" stop-opacity="0.000000"/>
		</linearGradient>
		<linearGradient x1="321.544678" y1="307.246613" x2="321.544678" y2="9.405579" id="paint_linear_2_3038_0" gradientUnits="userSpaceOnUse">
			<stop stop-color="#55F0FF"/>
			<stop offset="1.000000" stop-color="#5AAFC6" stop-opacity="0.000000"/>
		</linearGradient>
		<linearGradient x1="239.022858" y1="214.478943" x2="432.757050" y2="214.478943" id="paint_linear_2_3039_0" gradientUnits="userSpaceOnUse">
			<stop stop-color="#009DF8"/>
			<stop offset="1.000000" stop-color="#009DF8"/>
		</linearGradient>
		<linearGradient x1="432.757141" y1="214.478912" x2="237.696762" y2="214.478912" id="paint_linear_2_3039_1" gradientUnits="userSpaceOnUse">
			<stop stop-color="#75CEFF"/>
			<stop offset="1.000000" stop-color="#A0F7FF"/>
		</linearGradient>
		<linearGradient x1="217.994354" y1="218.931763" x2="454.074829" y2="218.931763" id="paint_linear_2_3040_0" gradientUnits="userSpaceOnUse">
			<stop stop-color="#009DF8"/>
			<stop offset="1.000000" stop-color="#009DF8"/>
		</linearGradient>
		<linearGradient x1="454.074951" y1="218.931885" x2="216.378418" y2="218.931885" id="paint_linear_2_3040_1" gradientUnits="userSpaceOnUse">
			<stop stop-color="#75CEFF"/>
			<stop offset="1.000000" stop-color="#A0F7FF"/>
		</linearGradient>
		<linearGradient x1="259.006714" y1="212.252426" x2="413.570587" y2="212.252426" id="paint_linear_2_3041_0" gradientUnits="userSpaceOnUse">
			<stop stop-color="#009DF8"/>
			<stop offset="1.000000" stop-color="#009DF8"/>
		</linearGradient>
		<linearGradient x1="413.570679" y1="212.252396" x2="257.948730" y2="212.252396" id="paint_linear_2_3041_1" gradientUnits="userSpaceOnUse">
			<stop stop-color="#75CEFF"/>
			<stop offset="1.000000" stop-color="#A0F7FF"/>
		</linearGradient>
		<linearGradient x1="285.291840" y1="208.541473" x2="386.922913" y2="208.541473" id="paint_linear_2_3042_0" gradientUnits="userSpaceOnUse">
			<stop stop-color="#009DF8"/>
			<stop offset="1.000000" stop-color="#009DF8"/>
		</linearGradient>
		<linearGradient x1="386.922943" y1="208.541519" x2="284.596191" y2="208.541519" id="paint_linear_2_3042_1" gradientUnits="userSpaceOnUse">
			<stop stop-color="#75CEFF"/>
			<stop offset="1.000000" stop-color="#A0F7FF"/>
		</linearGradient>
		<linearGradient x1="555.272522" y1="481.135284" x2="611.546692" y2="481.135284" id="paint_linear_2_3049_0" gradientUnits="userSpaceOnUse">
			<stop stop-color="#00D8FB"/>
			<stop offset="0.339962" stop-color="#009EF8"/>
			<stop offset="0.796096" stop-color="#006FEC"/>
			<stop offset="1.000000" stop-color="#005DFF"/>
		</linearGradient>
		<linearGradient x1="475.256897" y1="380.778351" x2="531.531067" y2="380.778351" id="paint_linear_2_3050_0" gradientUnits="userSpaceOnUse">
			<stop stop-color="#00D8FB"/>
			<stop offset="0.339962" stop-color="#009EF8"/>
			<stop offset="0.796096" stop-color="#006FEC"/>
			<stop offset="1.000000" stop-color="#005DFF"/>
		</linearGradient>
		<linearGradient x1="75.177063" y1="380.778351" x2="131.451233" y2="380.778351" id="paint_linear_2_3051_0" gradientUnits="userSpaceOnUse">
			<stop stop-color="#00D8FB"/>
			<stop offset="0.339962" stop-color="#009EF8"/>
			<stop offset="0.796096" stop-color="#006FEC"/>
			<stop offset="1.000000" stop-color="#005DFF"/>
		</linearGradient>
		<linearGradient x1="1.829161" y1="481.135284" x2="58.103325" y2="481.135284" id="paint_linear_2_3052_0" gradientUnits="userSpaceOnUse">
			<stop stop-color="#00D8FB"/>
			<stop offset="0.339962" stop-color="#009EF8"/>
			<stop offset="0.796096" stop-color="#006FEC"/>
			<stop offset="1.000000" stop-color="#005DFF"/>
		</linearGradient>
		<linearGradient x1="611.950256" y1="422.465363" x2="668.224426" y2="422.465363" id="paint_linear_2_3053_0" gradientUnits="userSpaceOnUse">
			<stop stop-color="#00D8FB"/>
			<stop offset="0.339962" stop-color="#009EF8"/>
			<stop offset="0.796096" stop-color="#006FEC"/>
			<stop offset="1.000000" stop-color="#005DFF"/>
		</linearGradient>
		<linearGradient x1="555.272522" y1="451.414581" x2="611.546692" y2="451.414581" id="paint_linear_2_3055_0" gradientUnits="userSpaceOnUse">
			<stop stop-color="#00D8FB"/>
			<stop offset="0.339962" stop-color="#009EF8"/>
			<stop offset="0.796096" stop-color="#006FEC"/>
			<stop offset="1.000000" stop-color="#005DFF"/>
		</linearGradient>
		<linearGradient x1="475.256897" y1="351.057159" x2="531.531067" y2="351.057159" id="paint_linear_2_3056_0" gradientUnits="userSpaceOnUse">
			<stop stop-color="#00D8FB"/>
			<stop offset="0.339962" stop-color="#009EF8"/>
			<stop offset="0.796096" stop-color="#006FEC"/>
			<stop offset="1.000000" stop-color="#005DFF"/>
		</linearGradient>
		<linearGradient x1="75.177063" y1="351.057159" x2="131.451233" y2="351.057159" id="paint_linear_2_3057_0" gradientUnits="userSpaceOnUse">
			<stop stop-color="#00D8FB"/>
			<stop offset="0.339962" stop-color="#009EF8"/>
			<stop offset="0.796096" stop-color="#006FEC"/>
			<stop offset="1.000000" stop-color="#005DFF"/>
		</linearGradient>
		<linearGradient x1="1.829161" y1="451.414581" x2="58.103325" y2="451.414581" id="paint_linear_2_3058_0" gradientUnits="userSpaceOnUse">
			<stop stop-color="#00D8FB"/>
			<stop offset="0.339962" stop-color="#009EF8"/>
			<stop offset="0.796096" stop-color="#006FEC"/>
			<stop offset="1.000000" stop-color="#005DFF"/>
		</linearGradient>
		<linearGradient x1="611.950256" y1="392.744171" x2="668.224426" y2="392.744171" id="paint_linear_2_3059_0" gradientUnits="userSpaceOnUse">
			<stop stop-color="#00D8FB"/>
			<stop offset="0.339962" stop-color="#009EF8"/>
			<stop offset="0.796096" stop-color="#006FEC"/>
			<stop offset="1.000000" stop-color="#005DFF"/>
		</linearGradient>
	</defs>
	<g opacity="0.200000">
		<path id="Path备份 9" d="M493.33 475.74C407.43 503.7 267.73 503.56 181.29 475.42C94.86 447.27 94.42 401.79 180.32 373.82C266.21 345.85 405.91 345.99 492.35 374.14C578.78 402.28 579.22 447.77 493.33 475.74Z" fill="url(#paint_linear_2_3022_0)" fill-opacity="1.000000" fill-rule="evenodd"/>
		<path id="Path备份 9" d="M493.33 475.74C407.43 503.7 267.73 503.56 181.29 475.42C94.86 447.27 94.42 401.79 180.32 373.82C266.21 345.85 405.91 345.99 492.35 374.14C578.78 402.28 579.22 447.77 493.33 475.74ZM337.51 495.22Q246.34 495.13 181.73 474.09Q150.13 463.8 133.47 450.51Q118.29 438.4 117.61 425.52Q117.58 425.03 117.58 424.54Q117.57 423.8 117.61 423.07Q118.3 410.47 132.96 398.62Q149.35 385.37 180.75 375.15Q244.96 354.24 336.13 354.34Q427.3 354.43 491.92 375.47Q523.52 385.76 540.17 399.05Q555.35 411.16 556.03 424.03Q556.06 424.52 556.06 425.02Q556.07 425.75 556.03 426.48Q555.34 439.09 540.69 450.93Q524.29 464.18 492.89 474.41Q428.68 495.31 337.51 495.22Z" fill="url(#paint_linear_2_3022_1)" fill-opacity="1.000000" fill-rule="evenodd"/>
	</g>
	<g opacity="0.147247">
		<path id="Path备份 8" d="M526.28 504.16C421.71 542.59 251.64 542.39 146.42 503.72C41.19 465.06 40.66 402.56 145.23 364.14C249.8 325.71 419.87 325.91 525.09 364.57C630.32 403.24 630.85 465.74 526.28 504.16Z" fill="url(#paint_linear_2_3023_0)" fill-opacity="1.000000" fill-rule="evenodd"/>
		<path id="Path备份 8" d="M526.28 504.16C421.71 542.59 251.64 542.39 146.42 503.72C41.19 465.06 40.66 402.56 145.23 364.14C249.8 325.71 419.87 325.91 525.09 364.57C630.32 403.24 630.85 465.74 526.28 504.16ZM235.67 524.12Q185.53 516.6 146.9 502.41Q108.39 488.26 88.07 469.96Q69.79 453.5 68.63 435.91Q68.56 434.87 68.55 433.83Q68.54 432.43 68.63 431.05Q69.81 413.84 87.44 397.75Q107.45 379.51 145.71 365.45Q184.1 351.34 234.1 343.94Q282.44 336.78 334.91 336.84Q387.38 336.9 435.85 344.17Q485.98 351.69 524.61 365.89Q563.12 380.04 583.44 398.33Q601.72 414.79 602.88 432.38Q602.95 433.42 602.96 434.47Q602.97 435.86 602.88 437.25Q601.7 454.46 584.07 470.54Q564.06 488.79 525.8 502.85Q487.41 516.95 437.41 524.36Q389.07 531.51 336.6 531.45Q284.12 531.39 235.67 524.12Z" fill="url(#paint_linear_2_3023_1)" fill-opacity="1.000000" fill-rule="evenodd"/>
	</g>
	<g opacity="0.100000">
		<path id="Path备份 10" d="M571.18 499.71C441.09 538.13 229.52 537.94 98.61 499.27C-32.3 460.6 -32.96 398.11 97.13 359.68C227.22 321.26 438.8 321.45 569.7 360.12C700.61 398.79 701.27 461.28 571.18 499.71Z" fill="url(#paint_linear_2_3024_0)" fill-opacity="0" fill-rule="evenodd"/>
		<path id="Path备份 10" d="M571.18 499.71C441.09 538.13 229.52 537.94 98.61 499.27C-32.3 460.6 -32.96 398.11 97.13 359.68C227.22 321.26 438.8 321.45 569.7 360.12C700.61 398.79 701.27 461.28 571.18 499.71ZM209.55 519.67Q147.12 512.14 99.01 497.93Q51.01 483.75 25.68 465.42Q2.32 448.51 1.43 430.5Q1.4 429.93 1.4 429.37Q1.39 428.48 1.43 427.59Q2.34 409.94 24.9 393.4Q49.84 375.11 97.53 361.03Q145.33 346.9 207.61 339.49Q267.79 332.33 333.11 332.39Q398.43 332.45 458.76 339.72Q521.2 347.25 569.31 361.46Q617.3 375.64 642.63 393.97Q665.99 410.88 666.88 428.89Q666.91 429.46 666.92 430.02Q666.93 430.91 666.88 431.81Q665.97 449.46 643.41 466Q618.47 484.28 570.79 498.37Q522.98 512.49 460.7 519.9Q400.53 527.06 335.2 527Q269.88 526.94 209.55 519.67Z" fill="url(#paint_linear_2_3024_1)" fill-opacity="1.000000" fill-rule="evenodd"/>
	</g>
	<g opacity="0.300000">
		<path id="Path备份 7" d="M461.57 454.95C393.1 475.62 281.75 475.51 212.85 454.71C143.95 433.91 143.6 400.29 212.07 379.62C280.54 358.94 391.9 359.05 460.79 379.85C529.69 400.65 530.04 434.27 461.57 454.95Z" fill="url(#paint_linear_2_3025_0)" fill-opacity="1.000000" fill-rule="evenodd"/>
		<path id="Path备份 7" d="M461.57 454.95C393.1 475.62 281.75 475.51 212.85 454.71C143.95 433.91 143.6 400.29 212.07 379.62C280.54 358.94 391.9 359.05 460.79 379.85C529.69 400.65 530.04 434.27 461.57 454.95ZM337.37 468.98Q264.73 468.91 213.25 453.37Q188.11 445.78 174.87 435.98Q162.75 427.02 162.36 417.57Q162.35 417.34 162.35 417.1Q162.34 416.69 162.36 416.28Q162.76 407.03 174.46 398.27Q187.49 388.5 212.47 380.96Q263.63 365.51 336.27 365.58Q408.91 365.65 460.39 381.19Q485.54 388.78 498.78 398.58Q510.89 407.54 511.28 416.99Q511.29 417.22 511.29 417.46Q511.3 417.87 511.28 418.28Q510.88 427.53 499.18 436.3Q486.15 446.06 461.17 453.61Q410.02 469.05 337.37 468.98Z" fill="url(#paint_linear_2_3025_1)" fill-opacity="1.000000" fill-rule="evenodd"/>
	</g>
	<g opacity="0.700000">
		<path id="Path备份 6" d="M419.39 436.29C374.36 450.15 301.14 450.08 255.83 436.13C210.53 422.18 210.3 399.64 255.32 385.78C300.34 371.91 373.57 371.98 418.87 385.93C464.18 399.88 464.41 422.43 419.39 436.29Z" fill="url(#paint_linear_2_3026_0)" fill-opacity="0" fill-rule="evenodd"/>
		<path id="Path备份 6" d="M419.39 436.29C374.36 450.15 301.14 450.08 255.83 436.13C210.53 422.18 210.3 399.64 255.32 385.78C300.34 371.91 373.57 371.98 418.87 385.93C464.18 399.88 464.41 422.43 419.39 436.29ZM337.72 445.24Q290.02 445.2 256.25 434.8Q239.79 429.73 231.15 423.21Q223.31 417.3 223.11 411.13Q223.11 411.02 223.1 410.91Q223.1 410.69 223.11 410.47Q223.32 404.43 230.89 398.64Q239.39 392.15 255.73 387.11Q289.3 376.78 336.99 376.83Q384.68 376.87 418.46 387.27Q434.92 392.34 443.56 398.86Q451.4 404.77 451.6 410.94Q451.6 411.05 451.6 411.16Q451.61 411.38 451.6 411.6Q451.39 417.64 443.82 423.42Q435.32 429.92 418.97 434.95Q385.41 445.29 337.72 445.24Z" fill="url(#paint_linear_2_3026_1)" fill-opacity="1.000000" fill-rule="evenodd"/>
	</g>
	<path id="Path" d="M471.12 378.3L471.12 328.02L195.06 328.02L195.06 379.65C194.96 404.93 205.46 419.71 235.75 438.2C290.24 471.46 376.29 467.29 431.23 438.2C464.59 420.53 471.4 403.92 471.12 378.3Z" fill="url(#paint_linear_2_3027_0)" fill-opacity="1.000000" fill-rule="evenodd"/>
	<rect id="矩形" x="319.770996" y="418.567383" rx="3.500000" width="37.306633" height="23.748516" fill="#40FEFF" fill-opacity="1.000000"/>
	<rect id="矩形" x="319.770996" y="418.567383" rx="3.500000" width="37.306633" height="23.748516" stroke="#979797" stroke-opacity="0" stroke-width="0.700000"/>
	<path id="矩形备份 5" d="M375.75 417.92L406.06 410.69C408.26 410.16 410.37 411.83 410.37 414.09L410.37 430.64C410.37 432.26 409.26 433.67 407.68 434.05L377.37 441.28C375.17 441.81 373.06 440.14 373.06 437.88L373.06 421.33C373.06 419.71 374.17 418.3 375.75 417.92Z" fill="#40FEFF" fill-opacity="1.000000" fill-rule="evenodd"/>
	<path id="矩形备份 5" d="M406.06 410.69C408.26 410.16 410.37 411.83 410.37 414.09L410.37 430.64C410.37 432.26 409.26 433.67 407.68 434.05L377.37 441.28C375.17 441.81 373.06 440.14 373.06 437.88L373.06 421.33C373.06 419.71 374.17 418.3 375.75 417.92L406.06 410.69Z" stroke="#979797" stroke-opacity="0" stroke-width="0.700000"/>
	<path id="矩形备份 6" d="M301.09 417.92L270.78 410.69C268.58 410.16 266.47 411.83 266.47 414.09L266.47 430.64C266.47 432.26 267.58 433.67 269.16 434.05L299.47 441.28C301.67 441.81 303.78 440.14 303.78 437.88L303.78 421.33C303.78 419.71 302.67 418.3 301.09 417.92Z" fill="#40FEFF" fill-opacity="1.000000" fill-rule="evenodd"/>
	<path id="矩形备份 6" d="M270.78 410.69C268.58 410.16 266.47 411.83 266.47 414.09L266.47 430.64C266.47 432.26 267.58 433.67 269.16 434.05L299.47 441.28C301.67 441.81 303.78 440.14 303.78 437.88L303.78 421.33C303.78 419.71 302.67 418.3 301.09 417.92L270.78 410.69Z" stroke="#979797" stroke-opacity="0" stroke-width="0.700000"/>
	<path id="Path" d="M431 378.96C377.26 408.14 289.87 408 235.79 378.63C181.72 349.27 181.44 301.81 235.18 272.63C288.92 243.45 376.32 243.6 430.39 272.96C484.46 302.32 484.74 349.78 431 378.96Z" fill="url(#paint_linear_2_3031_0)" fill-opacity="1.000000" fill-rule="evenodd"/>
	<path id="Path" d="M431 378.96C377.26 408.14 289.87 408 235.79 378.63C181.72 349.27 181.44 301.81 235.18 272.63C288.92 243.45 376.32 243.6 430.39 272.96C484.46 302.32 484.74 349.78 431 378.96ZM333.53 399.35Q276.7 399.25 236.46 377.4Q216.81 366.73 206.45 352.94Q197.94 341.62 196.68 329.55Q196.47 327.56 196.46 325.55Q196.44 323.25 196.69 320.97Q197.96 309.21 206.13 298.21Q216.32 284.46 235.85 273.86Q275.84 252.14 332.66 252.24Q389.48 252.34 429.72 274.19Q449.37 284.86 459.74 298.65Q468.24 309.97 469.51 322.05Q469.71 324.03 469.72 326.04Q469.74 328.35 469.49 330.62Q468.22 342.38 460.06 353.38Q449.86 367.13 430.33 377.73Q390.34 399.45 333.53 399.35Z" fill="url(#paint_linear_2_3031_1)" fill-opacity="1.000000" fill-rule="evenodd"/>
	<g opacity="0.500000">
		<path id="Path备份" d="M432.68 367.13C391.18 389.73 323.69 389.61 281.94 366.88C240.18 344.14 239.97 307.39 281.47 284.79C322.96 262.2 390.45 262.32 432.21 285.05C473.96 307.79 474.18 344.54 432.68 367.13Z" fill="url(#paint_linear_2_3033_0)" fill-opacity="1.000000" fill-rule="evenodd"/>
		<path id="Path备份" d="" fill="url(#paint_linear_2_3033_1)" fill-opacity="0" fill-rule="evenodd"/>
	</g>
	<path id="Path" d="M439.14 306.61L439.14 267.77L225.97 267.77L225.97 307.65C225.9 327.19 234 338.61 257.39 352.89C299.46 378.59 365.91 375.37 408.34 352.89C434.1 339.24 439.36 326.41 439.14 306.61Z" fill="url(#paint_linear_2_3034_0)" fill-opacity="1.000000" fill-rule="evenodd"/>
	<path id="Path" d="M408.16 307C366.67 329.6 299.18 329.48 257.42 306.75C215.67 284.01 215.46 247.26 256.95 224.67C298.45 202.07 365.94 202.19 407.69 224.92C449.45 247.66 449.66 284.41 408.16 307Z" fill="url(#paint_linear_2_3035_0)" fill-opacity="1.000000" fill-rule="evenodd"/>
	<path id="Path" d="M408.16 307C366.67 329.6 299.18 329.48 257.42 306.75C215.67 284.01 215.46 247.26 256.95 224.67C298.45 202.07 365.94 202.19 407.69 224.92C449.45 247.66 449.66 284.41 408.16 307ZM332.89 322.47Q289.1 322.4 258.09 305.52Q242.98 297.29 235.02 286.67Q228.49 277.95 227.53 268.67Q227.38 267.16 227.37 265.65Q227.36 263.9 227.54 262.17Q228.5 253.13 234.77 244.66Q242.61 234.07 257.62 225.9Q288.43 209.12 332.22 209.2Q376.02 209.27 407.02 226.15Q422.14 234.38 430.1 245Q436.63 253.72 437.58 263.01Q437.74 264.51 437.75 266.02Q437.76 267.77 437.57 269.5Q436.61 278.54 430.34 287.01Q422.51 297.6 407.49 305.77Q376.69 322.55 332.89 322.47Z" fill="url(#paint_linear_2_3035_1)" fill-opacity="1.000000" fill-rule="evenodd"/>
	<g opacity="0.700000">
		<path id="Path" d="M472.19 0L212.11 0L267.46 285.25C267.57 290.86 274.25 296.46 287.48 300.75C314.06 309.37 357.02 309.41 383.44 300.85C396.7 296.55 403.27 290.9 403.16 285.25L472.19 0Z" fill="url(#paint_linear_2_3037_0)" fill-opacity="1.000000" fill-rule="evenodd"/>
	</g>
	<g opacity="0.400000">
		<path id="Path" d="M580.91 36.89L85.27 34.13L269.86 290.23C269.86 290.23 288.57 307.24 335.76 307.24C382.94 307.24 400.84 290.23 400.84 290.23L580.91 36.89Z" fill="url(#paint_linear_2_3038_0)" fill-opacity="1.000000" fill-rule="evenodd"/>
	</g>
	<g opacity="0.300000">
		<path id="Path备份 2" d="M404.4 237.11C366.43 249.53 304.68 249.47 266.47 236.97C228.27 224.47 228.07 204.26 266.04 191.84C304.01 179.42 365.76 179.48 403.97 191.98C442.18 204.48 442.37 224.69 404.4 237.11Z" fill="url(#paint_linear_2_3039_0)" fill-opacity="0" fill-rule="evenodd"/>
		<path id="Path备份 2" d="M404.4 237.11C366.43 249.53 304.68 249.47 266.47 236.97C228.27 224.47 228.07 204.26 266.04 191.84C304.01 179.42 365.76 179.48 403.97 191.98C442.18 204.48 442.37 224.69 404.4 237.11ZM335.53 244.99Q295.35 244.95 266.91 235.64Q240.48 226.99 239.16 215.47Q239.1 214.92 239.09 214.36Q239.09 213.7 239.16 213.04Q240.48 201.68 266.48 193.17Q294.74 183.92 334.92 183.96Q375.09 184 403.54 193.31Q429.97 201.96 431.28 213.48Q431.35 214.03 431.35 214.59Q431.36 215.25 431.28 215.91Q429.97 227.27 403.97 235.78Q375.7 245.03 335.53 244.99Z" fill="url(#paint_linear_2_3039_1)" fill-opacity="1.000000" fill-rule="evenodd"/>
	</g>
	<g opacity="0.100000">
		<path id="Path备份 4" d="M419.52 249.99C373.26 267.03 298.01 266.94 251.45 249.79C204.89 232.64 204.65 204.91 250.92 187.87C297.19 170.82 372.44 170.91 419 188.06C465.56 205.22 465.79 232.94 419.52 249.99Z" fill="url(#paint_linear_2_3040_0)" fill-opacity="0" fill-rule="evenodd"/>
		<path id="Path备份 4" d="M419.52 249.99C373.26 267.03 298.01 266.94 251.45 249.79C204.89 232.64 204.65 204.91 250.92 187.87C297.19 170.82 372.44 170.91 419 188.06C465.56 205.22 465.79 232.94 419.52 249.99ZM335.6 261.31Q286.62 261.26 251.93 248.48Q235.03 242.25 226.16 234.24Q218.21 227.07 217.8 219.48Q217.78 219.13 217.77 218.78Q217.77 218.28 217.8 217.78Q218.22 210.36 225.88 203.36Q234.62 195.37 251.4 189.18Q285.87 176.48 334.85 176.54Q383.83 176.6 418.51 189.38Q435.41 195.6 444.29 203.62Q452.23 210.79 452.65 218.37Q452.67 218.72 452.67 219.08Q452.67 219.58 452.65 220.08Q452.22 227.49 444.56 234.5Q435.83 242.49 419.04 248.67Q384.57 261.37 335.6 261.31Z" fill="url(#paint_linear_2_3040_1)" fill-opacity="1.000000" fill-rule="evenodd"/>
	</g>
	<g opacity="0.500000">
		<path id="Path备份 3" d="M390.95 229.09C360.66 238.34 311.39 238.29 280.91 228.99C250.43 219.68 250.27 204.65 280.56 195.4C310.85 186.16 360.12 186.2 390.6 195.51C421.09 204.81 421.24 219.85 390.95 229.09Z" fill="url(#paint_linear_2_3041_0)" fill-opacity="0" fill-rule="evenodd"/>
		<path id="Path备份 3" d="M390.95 229.09C360.66 238.34 311.39 238.29 280.91 228.99C250.43 219.68 250.27 204.65 280.56 195.4C310.85 186.16 360.12 186.2 390.6 195.51C421.09 204.81 421.24 219.85 390.95 229.09ZM336 234.6Q303.98 234.57 281.32 227.65Q260.2 221.2 259.38 212.78Q259.35 212.47 259.34 212.16Q259.34 211.78 259.38 211.4Q260.2 203.08 280.97 196.74Q303.49 189.87 335.51 189.9Q367.53 189.93 390.19 196.85Q411.31 203.29 412.13 211.72Q412.16 212.03 412.17 212.34Q412.17 212.72 412.13 213.1Q411.31 221.42 390.54 227.75Q368.02 234.63 336 234.6Z" fill="url(#paint_linear_2_3041_1)" fill-opacity="1.000000" fill-rule="evenodd"/>
	</g>
	<g opacity="0.700000">
		<path id="Path备份 5" d="M372.05 219.59C352.13 225.66 319.73 225.63 299.69 219.52C279.65 213.42 279.55 203.55 299.46 197.48C319.38 191.41 351.78 191.45 371.82 197.55C391.86 203.66 391.96 213.52 372.05 219.59Z" fill="url(#paint_linear_2_3042_0)" fill-opacity="0" fill-rule="evenodd"/>
		<path id="Path备份 5" d="M372.05 219.59C352.13 225.66 319.73 225.63 299.69 219.52C279.65 213.42 279.55 203.55 299.46 197.48C319.38 191.41 351.78 191.45 371.82 197.55C391.86 203.66 391.96 213.52 372.05 219.59ZM335.92 222.72Q314.93 222.7 300.1 218.18Q286.44 214.02 286.01 208.77Q285.99 208.62 285.99 208.47Q285.99 208.28 286.01 208.09Q286.44 202.91 299.87 198.82Q314.61 194.33 335.59 194.35Q356.58 194.37 371.41 198.89Q385.07 203.05 385.5 208.3Q385.52 208.45 385.52 208.6Q385.52 208.79 385.5 208.99Q385.07 214.16 371.64 218.25Q356.9 222.74 335.92 222.72Z" fill="url(#paint_linear_2_3042_1)" fill-opacity="1.000000" fill-rule="evenodd"/>
	</g>
	<rect id="矩形备份 9" x="322.968750" y="341.384766" rx="3.500000" width="23.449883" height="14.842822" fill="#40FEFF" fill-opacity="1.000000"/>
	<rect id="矩形备份 9" x="322.968750" y="341.384766" rx="3.500000" width="23.449883" height="14.842822" stroke="#979797" stroke-opacity="0" stroke-width="0.700000"/>
	<path id="矩形备份 8" d="M359.75 340.46L376.2 336.49C378.4 335.96 380.52 337.62 380.52 339.89L380.52 347.8C380.52 349.42 379.42 350.82 377.85 351.2L361.4 355.18C359.19 355.71 357.07 354.04 357.07 351.78L357.07 343.87C357.07 342.25 358.18 340.84 359.75 340.46Z" fill="#40FEFF" fill-opacity="1.000000" fill-rule="evenodd"/>
	<path id="矩形备份 8" d="M376.2 336.49C378.4 335.96 380.52 337.62 380.52 339.89L380.52 347.8C380.52 349.42 379.42 350.82 377.85 351.2L361.4 355.18C359.19 355.71 357.07 354.04 357.07 351.78L357.07 343.87C357.07 342.25 358.18 340.84 359.75 340.46L376.2 336.49Z" stroke="#979797" stroke-opacity="0" stroke-width="0.700000"/>
	<path id="矩形备份 7" d="M309.63 340.46L293.18 336.49C290.97 335.96 288.85 337.62 288.85 339.89L288.85 347.8C288.85 349.42 289.96 350.82 291.53 351.2L307.98 355.18C310.18 355.71 312.31 354.04 312.31 351.78L312.31 343.87C312.31 342.25 311.2 340.84 309.63 340.46Z" fill="#40FEFF" fill-opacity="1.000000" fill-rule="evenodd"/>
	<path id="矩形备份 7" d="M293.18 336.49C290.97 335.96 288.85 337.62 288.85 339.89L288.85 347.8C288.85 349.42 289.96 350.82 291.53 351.2L307.98 355.18C310.18 355.71 312.31 354.04 312.31 351.78L312.31 343.87C312.31 342.25 311.2 340.84 309.63 340.46L293.18 336.49Z" stroke="#979797" stroke-opacity="0" stroke-width="0.700000"/>
	<g opacity="0.572917">
		<g opacity="0.900000">
			<path id="矩形" d="M583.25 463.38L611.54 481.13L583.25 498.89L554.96 481.13L583.25 463.38Z" fill="url(#paint_linear_2_3049_0)" fill-opacity="1.000000" fill-rule="evenodd"/>
			<path id="矩形备份 12" d="M503.24 363.02L531.53 380.77L503.24 398.53L474.95 380.77L503.24 363.02Z" fill="url(#paint_linear_2_3050_0)" fill-opacity="1.000000" fill-rule="evenodd"/>
			<path id="矩形备份 14" d="M103.16 363.02L131.45 380.77L103.16 398.53L74.87 380.77L103.16 363.02Z" fill="url(#paint_linear_2_3051_0)" fill-opacity="1.000000" fill-rule="evenodd"/>
			<path id="矩形备份 15" d="M29.81 463.38L58.1 481.13L29.81 498.89L1.52 481.13L29.81 463.38Z" fill="url(#paint_linear_2_3052_0)" fill-opacity="1.000000" fill-rule="evenodd"/>
			<path id="矩形备份 13" d="M639.93 404.71L668.22 422.46L639.93 440.22L611.64 422.46L639.93 404.71Z" fill="url(#paint_linear_2_3053_0)" fill-opacity="1.000000" fill-rule="evenodd"/>
		</g>
		<g opacity="0.600000">
			<g opacity="0.500000">
				<path id="矩形备份 20" d="M583.25 433.65L611.54 451.41L583.25 469.17L554.96 451.41L583.25 433.65Z" fill="url(#paint_linear_2_3055_0)" fill-opacity="1.000000" fill-rule="evenodd"/>
			</g>
			<g opacity="0.500000">
				<path id="矩形备份 19" d="M503.24 333.3L531.53 351.05L503.24 368.81L474.95 351.05L503.24 333.3Z" fill="url(#paint_linear_2_3056_0)" fill-opacity="1.000000" fill-rule="evenodd"/>
			</g>
			<g opacity="0.500000">
				<path id="矩形备份 18" d="M103.16 333.3L131.45 351.05L103.16 368.81L74.87 351.05L103.16 333.3Z" fill="url(#paint_linear_2_3057_0)" fill-opacity="1.000000" fill-rule="evenodd"/>
			</g>
			<g opacity="0.500000">
				<path id="矩形备份 17" d="M29.81 433.65L58.1 451.41L29.81 469.17L1.52 451.41L29.81 433.65Z" fill="url(#paint_linear_2_3058_0)" fill-opacity="1.000000" fill-rule="evenodd"/>
			</g>
			<g opacity="0.500000">
				<path id="矩形备份 16" d="M639.93 374.98L668.22 392.74L639.93 410.5L611.64 392.74L639.93 374.98Z" fill="url(#paint_linear_2_3059_0)" fill-opacity="1.000000" fill-rule="evenodd"/>
			</g>
		</g>
	</g>
</svg>
