<?xml version="1.0" standalone="no"?><!DOCTYPE svg PUBLIC "-//W3C//DTD SVG 1.1//EN" "http://www.w3.org/Graphics/SVG/1.1/DTD/svg11.dtd"><svg t="1711890245966" class="icon" viewBox="0 0 1024 1024" version="1.1" xmlns="http://www.w3.org/2000/svg" p-id="2207" xmlns:xlink="http://www.w3.org/1999/xlink" width="200" height="200"><path d="M810.666667 85.333333H170.666667c-23.466667 0-42.666667 19.2-42.666667 42.666667v768c0 23.466667 19.2 42.666667 42.666667 42.666667h345.6c-55.466667-53.333333-89.6-130.133333-89.6-213.333334 0-164.266667 134.4-298.666667 298.666666-298.666666 44.8 0 89.6 10.666667 128 27.733333V128c0-23.466667-19.2-42.666667-42.666666-42.666667zM426.666667 512h-170.666667v-85.333333h170.666667v85.333333z m213.333333-170.666667H256v-85.333333h384v85.333333z" fill="#1296db" p-id="2208"></path><path d="M725.333333 576c-83.2 0-149.333333 66.133333-149.333333 149.333333s66.133333 149.333333 149.333333 149.333334 149.333333-66.133333 149.333334-149.333334-66.133333-149.333333-149.333334-149.333333z m-234.666666 149.333333c0-130.133333 104.533333-234.666667 234.666666-234.666666s234.666667 104.533333 234.666667 234.666666-104.533333 234.666667-234.666667 234.666667-234.666667-104.533333-234.666666-234.666667z m192 0v-106.666666h85.333333v85.333333h64v85.333333h-149.333333v-64z" fill="#1296db" p-id="2209"></path></svg>