<?xml version="1.0" standalone="no"?><!DOCTYPE svg PUBLIC "-//W3C//DTD SVG 1.1//EN" "http://www.w3.org/Graphics/SVG/1.1/DTD/svg11.dtd"><svg t="1711890384159" class="icon" viewBox="0 0 1024 1024" version="1.1" xmlns="http://www.w3.org/2000/svg" p-id="3616" xmlns:xlink="http://www.w3.org/1999/xlink" width="200" height="200"><path d="M545.621333 92.224a85.333333 85.333333 0 0 0-67.242666 0l-298.666667 128A85.333333 85.333333 0 0 0 128 298.666667v158.72a497.130667 497.130667 0 0 0 360.554667 477.994666 85.333333 85.333333 0 0 0 46.890666 0A497.130667 497.130667 0 0 0 896 457.386667V298.666667a85.333333 85.333333 0 0 0-51.712-78.442667l-298.666667-128zM469.333333 405.333333a42.666667 42.666667 0 1 1 85.333334 0 42.666667 42.666667 0 0 1-85.333334 0z m170.666667 0a128.064 128.064 0 0 1-85.333333 120.725334V576h85.333333v85.333333h-85.333333v85.333334h-85.333334V526.058667A128 128 0 1 1 640 405.333333z" fill="#1296db" p-id="3617"></path></svg>