<?xml version="1.0" standalone="no"?><!DOCTYPE svg PUBLIC "-//W3C//DTD SVG 1.1//EN" "http://www.w3.org/Graphics/SVG/1.1/DTD/svg11.dtd"><svg t="1711890670777" class="icon" viewBox="0 0 1024 1024" version="1.1" xmlns="http://www.w3.org/2000/svg" p-id="3955" xmlns:xlink="http://www.w3.org/1999/xlink" width="200" height="200"><path d="M896 213.333333c0 70.698667-171.925333 128-384 128S128 284.032 128 213.333333s171.925333-128 384-128 384 57.301333 384 128z" fill="#1296db" p-id="3956"></path><path d="M896 312.277333C817.6 368.042667 674.965333 405.333333 512 405.333333c-162.965333 0-305.6-37.290667-384-93.056V512c0 70.698667 171.925333 128 384 128s384-57.301333 384-128v-199.722667z" fill="#1296db" p-id="3957"></path><path d="M896 610.944C817.6 666.709333 674.965333 704 512 704c-162.965333 0-305.6-37.290667-384-93.056V810.666667c0 70.698667 171.925333 128 384 128s384-57.301333 384-128v-199.722667z" fill="#1296db" p-id="3958"></path></svg>