<?xml version="1.0" standalone="no"?><!DOCTYPE svg PUBLIC "-//W3C//DTD SVG 1.1//EN" "http://www.w3.org/Graphics/SVG/1.1/DTD/svg11.dtd"><svg t="1711890295827" class="icon" viewBox="0 0 1065 1024" version="1.1" xmlns="http://www.w3.org/2000/svg" p-id="3028" xmlns:xlink="http://www.w3.org/1999/xlink" width="208.0078125" height="200"><path d="M123.052273 123.052273a41.017424 41.017424 0 0 1 41.017425-41.017424h615.261365a41.017424 41.017424 0 0 1 41.017425 41.017424v738.313639a41.017424 41.017424 0 0 1-41.017425 41.017425H164.069698a41.017424 41.017424 0 0 1-41.017425-41.017425V123.052273z" fill="#1296db" p-id="3029" data-spm-anchor-id="a313x.collections_detail.0.i7.32383a81Sgp0a5" class="selected"></path><path d="M512.717805 963.909473h150.390386L963.909473 663.108191 813.519087 512.717805 512.717805 813.519087V963.909473z" fill="#FFFFFF" p-id="3030"></path><path d="M813.519087 452.565752c15.955778 0 31.255277 6.337192 42.535069 17.616984l150.390386 150.390386a60.152053 60.152053 0 0 1 0 85.090647L705.663769 1006.444542c-11.279792 11.279792-26.5998 17.637492-42.555578 17.637493H512.717805A60.152053 60.152053 0 0 1 452.565752 963.909473v-150.390386c0-15.955778 6.337192-31.255277 17.616984-42.535069l300.801282-300.801282c11.279792-11.279792 26.579291-17.637492 42.535069-17.637493zM572.869858 838.437172v65.320248h65.320248l240.649229-240.62872-65.320248-65.320248-240.649229 240.62872zM287.121971 287.121971h369.156819v82.034849H287.121971v-82.034849zM287.121971 451.191668h246.104546v82.034849H287.121971v-82.034849z" fill="#FFFFFF" p-id="3031"></path><path d="M770.840457 565.753335a41.017424 41.017424 0 0 1 57.998638 0l102.543561 102.543561a41.017424 41.017424 0 0 1 0 57.998638l-205.087122 205.087122A41.017424 41.017424 0 0 1 697.296215 943.400761h-102.543561a41.017424 41.017424 0 0 1-41.017425-41.017424v-102.543561a41.017424 41.017424 0 0 1 12.018106-28.999319l205.087122-205.087122z" fill="#1296db" p-id="3032" data-spm-anchor-id="a313x.collections_detail.0.i8.32383a81Sgp0a5" class="selected"></path></svg>