<?xml version="1.0" standalone="no"?><!DOCTYPE svg PUBLIC "-//W3C//DTD SVG 1.1//EN" "http://www.w3.org/Graphics/SVG/1.1/DTD/svg11.dtd"><svg t="1711889986892" class="icon" viewBox="0 0 1024 1024" version="1.1" xmlns="http://www.w3.org/2000/svg" p-id="1449" xmlns:xlink="http://www.w3.org/1999/xlink" width="200" height="200"><path d="M128 618.666667a42.666667 42.666667 0 0 1 42.666667-42.666667h128a42.666667 42.666667 0 0 1 42.666666 42.666667v256a42.666667 42.666667 0 0 1-42.666666 42.666666H170.666667a42.666667 42.666667 0 0 1-42.666667-42.666666V618.666667zM405.333333 533.333333a42.666667 42.666667 0 0 1 42.666667-42.666666h128a42.666667 42.666667 0 0 1 42.666667 42.666666v341.333334a42.666667 42.666667 0 0 1-42.666667 42.666666h-128a42.666667 42.666667 0 0 1-42.666667-42.666666V533.333333zM682.666667 448a42.666667 42.666667 0 0 1 42.666666-42.666667h128a42.666667 42.666667 0 0 1 42.666667 42.666667v426.666667a42.666667 42.666667 0 0 1-42.666667 42.666666h-128a42.666667 42.666667 0 0 1-42.666666-42.666666V448zM848.810667 212.821333l-290.816 205.994667a42.666667 42.666667 0 0 1-57.984-8.170667l-60.885334-76.117333-258.965333 172.629333-47.317333-70.997333 291.498666-194.346667a42.666667 42.666667 0 0 1 56.96 8.874667l60.202667 75.242667 257.984-182.741334 49.322667 69.632z" fill="#1296db" p-id="1450"></path><path d="M874.666667 320V149.333333a42.666667 42.666667 0 0 0-42.666667-42.666666h-170.666667v85.333333h128v128h85.333334z" fill="#1296db" p-id="1451"></path></svg>