<?xml version="1.0" standalone="no"?><!DOCTYPE svg PUBLIC "-//W3C//DTD SVG 1.1//EN" "http://www.w3.org/Graphics/SVG/1.1/DTD/svg11.dtd"><svg t="1706366060257" class="icon" viewBox="0 0 1083 1024" version="1.1" xmlns="http://www.w3.org/2000/svg" p-id="4301" xmlns:xlink="http://www.w3.org/1999/xlink" width="211.5234375" height="200"><path d="M987.161388 576.99438c-37.067107 0-70.740628 22.011769-85.795967 56.091504l-18.279669 41.400066a157.179769 157.179769 0 0 1-121.864463 92.244629c3.182017-9.554512 4.933818-19.752198 4.933818-30.364562 0-52.723306-42.635636-95.629752-95.037355-95.629753-0.008463 0-71.696926 0-140.98195-0.059239-28.536595-0.016926-69.183471-4.857653-100.792066-27.749554a188.001322 188.001322 0 0 0-110.947438-35.941554c-56.565421 0-108.408595 25.32919-143.63081 66.094546a31.346248 31.346248 0 0 0-16.358612-4.612232H31.68476C14.183669 638.468231 0 652.744992 0 670.347636v318.743273c0 17.602645 14.183669 31.879405 31.68476 31.879405h126.722116c17.492628 0 31.68476-14.27676 31.68476-31.879405v-5.077686a348.667769 348.667769 0 0 0 159.930182 39.013554h322.703868c177.549752 0 334.568727-113.655537 390.719471-283.123306l12.778843-38.590413c20.293818-61.245355-24.922975-124.318678-89.062612-124.318678zM126.722116 957.211504H63.361058V702.218579h63.361058v255.001388z m889.390545-276.056859l-12.778843 38.573487c-47.510215 143.402314-180.367868 239.751405-330.608132 239.751405H350.021818c-56.74314 0-112.995438-17.509554-159.938644-49.465124V753.503207a31.820165 31.820165 0 0 0 4.028297-10.324628c11.737917-59.358149 64.004231-102.433851 124.284827-102.433852a125.249587 125.249587 0 0 1 73.922644 23.932827c35.856926 25.963901 83.494083 39.495934 137.766083 39.54671 69.310413 0.050777 141.024264 0.050777 141.024264 0.050777 17.46724 0 31.68476 14.513719 31.684761 32.090976s-14.217521 31.879405-31.684761 31.879404H413.433653c-17.492628 0-31.676298 14.268298-31.676298 31.870943a31.600132 31.600132 0 0 0 31.676298 31.659372h326.258248c86.955372 0 165.964165-51.445421 201.287934-131.393587l18.279669-41.400066a30.550744 30.550744 0 0 1 27.901884-18.237356c20.860826 0 35.543802 20.505388 28.951273 40.409918zM667.411041 0.973223c157.222083 0 285.137455 128.685488 285.137455 286.872331 0 158.17838-127.915372 286.872331-285.137455 286.87233-157.21362 0-285.128992-128.69395-285.128991-286.87233C382.28205 129.667174 510.197421 0.981686 667.411041 0.981686zM794.150083 255.974612c17.492628 0 31.676298 14.268298 31.676297 31.879405 0 17.602645-14.183669 31.870942-31.676297 31.870942H667.411041c-17.492628 0-31.676298-14.268298-31.676297-31.870942V160.353322c0-17.602645 14.183669-31.879405 31.676297-31.879405 17.501091 0 31.68476 14.27676 31.684761 31.879405v95.629752h95.037355zM667.411041 510.984463c122.287603 0 221.776397-100.089653 221.776397-223.121984 0-123.032331-99.488793-223.121983-221.776397-223.121983-122.27914 0-221.767934 100.089653-221.767934 223.121983 0 123.023868 99.488793 223.121983 221.767934 223.121984z" fill="#13227a" p-id="4302"></path></svg>